<svg xmlns="http://www.w3.org/2000/svg" viewBox="0 0 96 96" width="96" height="96" role="img" aria-label="Огород">
  <defs>
    <linearGradient id="leaf" x1="0" y1="0" x2="0" y2="1">
      <stop offset="0" stop-color="#7FC65C"/>
      <stop offset="1" stop-color="#4E9A3F"/>
    </linearGradient>
  </defs>
  <circle cx="48" cy="48" r="46" fill="#EDF4E2"/>
  <!-- грядка: дуги-борозды -->
  <g fill="none" stroke="#C0895E" stroke-width="3.4" stroke-linecap="round" opacity="0.9">
    <path d="M22 70 Q48 64 74 70"/>
    <path d="M27 78 Q48 73 69 78"/>
  </g>
  <!-- стебель -->
  <path d="M48 70 C 47 60 47 53 48 45" fill="none" stroke="#4E9A3F" stroke-width="3.6" stroke-linecap="round"/>
  <!-- левый лист -->
  <path d="M48 60 C 40 58 32 53 28 45 C 37 45 45 49 48 57 Z" fill="url(#leaf)"/>
  <!-- правый лист (крупнее) -->
  <path d="M48 53 C 54 42 64 37 70 34 C 69 44 62 53 49 53 Z" fill="url(#leaf)"/>
  <!-- росток-верхушка -->
  <path d="M48 46 C 45 40 46 35 49 31 C 53 35 53 41 49 46 Z" fill="#8FD97B"/>
</svg>
